<svg width="375" height="80" viewBox="0 0 375 80" fill="none" xmlns="http://www.w3.org/2000/svg">
<path fill-rule="evenodd" clip-rule="evenodd" d="M235.035 0.00012207H231V0.135322C227.24 0.25929 224.031 2.62487 222.603 5.97188C220.035 23.4911 205.297 36.9232 187.5 36.9232C170.467 36.9232 156.236 24.6207 152.794 8.207H152.768C152.065 3.65885 148.293 0.158479 143.697 0.00697613V0.00012207H20.0001C8.95443 0.00012207 0.00012207 8.95442 0.00012207 20.0001V80.0001H375V20.0001C375 8.95443 366.046 0.00012207 355 0.00012207H235.1C235.089 4.07241e-05 235.078 0 235.067 0C235.057 0 235.046 4.07241e-05 235.035 0.00012207Z" fill="#2D9CDB"/>
</svg>
